<?xml version="1.0" standalone="no"?><!DOCTYPE svg PUBLIC "-//W3C//DTD SVG 1.1//EN" "http://www.w3.org/Graphics/SVG/1.1/DTD/svg11.dtd"><svg t="1713547248359" class="icon" viewBox="0 0 1024 1024" version="1.1" xmlns="http://www.w3.org/2000/svg" p-id="5462" xmlns:xlink="http://www.w3.org/1999/xlink" width="200" height="200"><path d="M626.88512 1024a37.376 37.376 0 0 1-27.0336-11.4688 40.2944 40.2944 0 0 1-11.264-27.904V393.8816c0-9.728 3.584-19.1488 9.8816-26.4192l249.8048-288.6144H174.89152l250.2656 288.8192c6.2464 7.168 9.728 16.5376 9.728 26.2144v355.4816l60.8256 50.688c16.4352 13.6192 18.944 38.4 5.632 55.296a37.5808 37.5808 0 0 1-53.8112 5.8368L372.47232 798.72a39.7312 39.7312 0 0 1-14.1824-30.5664V408.832L60.86912 65.536A40.2944 40.2944 0 0 1 54.57152 23.1936 38.2976 38.2976 0 0 1 89.38752 0h845.1584c15.1552 0 28.8768 9.1648 34.9696 23.3984a40.2944 40.2944 0 0 1-6.5536 42.3424L665.08032 408.9344V984.576c0 21.8112-17.1008 39.3728-38.2464 39.3728z" fill="#1890FF" p-id="5463"></path></svg>