<?xml version="1.0" encoding="UTF-8"?>
<svg version="1.1" xmlns="http://www.w3.org/2000/svg" width="360" height="360">
<path d="M0 0 C0.84575592 -0.00570007 1.69151184 -0.01140015 2.56289673 -0.01727295 C4.3498612 -0.02670501 6.13684293 -0.0332498 7.92382812 -0.03710938 C10.64744597 -0.04681578 13.37030908 -0.07785597 16.09375 -0.109375 C17.83332887 -0.11590566 19.57291312 -0.12115588 21.3125 -0.125 C22.12206146 -0.1373468 22.93162292 -0.1496936 23.76571655 -0.16241455 C28.66360423 -0.14326134 32.07997795 0.42366128 36.2890625 3.203125 C40.84552025 8.84102568 42.12944335 17.25342834 43.82421875 24.1328125 C44.95779545 28.27882232 45.68016644 30.64603055 48.90625 33.59765625 C53.04209714 35.56051211 57.21225763 37.15451358 61.5390625 38.640625 C67.69536045 40.80625137 73.48982568 43.03565213 79.0859375 46.453125 C82.55131621 47.63282839 84.74205506 47.105275 88.2890625 46.203125 C92.42174823 44.10897563 96.28223578 41.57084979 100.17382812 39.06445312 C105.51626501 35.77978001 109.0036323 33.95107234 115.2890625 35.203125 C118.35471615 37.1382985 120.74716734 39.63510889 123.2890625 42.203125 C124.75772135 43.58761714 126.22652962 44.97195487 127.6980896 46.35336304 C129.85327203 48.39317141 131.97357161 50.46732736 134.09155273 52.5456543 C135.18710948 53.61438242 136.28976589 54.67587785 137.39916992 55.73022461 C139.02427142 57.27604122 140.62502853 58.8438321 142.22265625 60.41796875 C142.71736923 60.87968979 143.21208221 61.34141083 143.7217865 61.81712341 C147.69588652 65.81481774 148.21007957 68.75836611 148.2890625 74.203125 C147.51635742 76.79199219 147.51635742 76.79199219 146.26953125 79 C145.82416016 79.81339844 145.37878906 80.62679687 144.91992188 81.46484375 C144.44361328 82.28597656 143.96730469 83.10710937 143.4765625 83.953125 C142.77950195 85.20802734 142.77950195 85.20802734 142.06835938 86.48828125 C141.20507007 88.04145885 140.33325677 89.58995388 139.44995117 91.13183594 C136.63570763 96.15308561 135.87184366 98.34528713 137.2890625 104.203125 C138.55132376 106.78410649 139.88984885 109.28625277 141.328125 111.7734375 C142.50000519 114.73648416 142.28690625 116.20959376 141.2890625 119.203125 C138.79523395 121.69695355 137.28538424 121.4590182 133.88006592 121.50666809 C133.14362854 121.50575668 132.40719116 121.50484528 131.6484375 121.50390625 C130.50873505 121.51033394 130.50873505 121.51033394 129.3460083 121.51689148 C127.73540239 121.52264025 126.1247705 121.52313101 124.51416016 121.51879883 C122.06236678 121.51565488 119.61179891 121.53903344 117.16015625 121.56445312 C115.59375152 121.56672784 114.02734355 121.56742882 112.4609375 121.56640625 C111.73259705 121.575616 111.00425659 121.58482574 110.25384521 121.59431458 C105.52485687 121.5518598 102.32029173 120.66506922 98.2890625 118.203125 C96.71484375 116.5546875 96.71484375 116.5546875 95.6015625 114.828125 C95.03888672 113.98121094 95.03888672 113.98121094 94.46484375 113.1171875 C93.58295641 111.68155694 92.72793827 110.22936346 91.88671875 108.76953125 C79.04897287 88.14752869 54.80007083 77.19777866 32.03515625 71.74609375 C5.15673777 66.43158426 -24.74348583 71.24049028 -47.7109375 86.515625 C-70.64202932 103.69928205 -86.79100521 126.25236676 -91.31835938 154.93530273 C-94.88640237 184.63571034 -89.7759895 212.7635122 -71.109375 236.578125 C-53.40420114 258.46535043 -28.75344332 271.87020423 -0.7109375 275.203125 C19.56704609 276.46363083 37.77476515 273.49716763 56.2890625 265.203125 C57.12566406 264.87570312 57.96226562 264.54828125 58.82421875 264.2109375 C72.4370098 258.78502784 87.27024351 246.56520805 94.3515625 233.578125 C96.89986427 229.13914773 99.3523977 225.84867993 104.2890625 224.203125 C106.82814154 224.08272898 109.33901189 224.01508257 111.87890625 224 C112.61984024 223.99429993 113.36077423 223.98859985 114.12416077 223.98272705 C115.69009986 223.97328965 117.2560587 223.96674807 118.82202148 223.96289062 C121.21438221 223.95317447 123.60588731 223.92213642 125.99804688 223.890625 C127.52082824 223.88409552 129.04361574 223.87884483 130.56640625 223.875 C131.63688454 223.8564798 131.63688454 223.8564798 132.72898865 223.83758545 C136.87352128 223.85612992 139.27973401 224.26884814 142.2890625 227.203125 C141.87667467 232.42670423 139.88362504 236.03653688 137.25 240.4453125 C135.59758381 245.18761262 136.28027627 249.1149375 138.41210938 253.52783203 C139.83457483 256.00205677 141.32046973 258.41966447 142.8515625 260.828125 C149.36831833 271.09988883 149.36831833 271.09988883 148.2890625 276.203125 C145.43190725 281.00766714 142.00671874 284.76621712 138.0625 288.66015625 C137.47360992 289.2485881 136.88471985 289.83701996 136.27798462 290.44328308 C135.04153556 291.67672861 133.80267467 292.90776074 132.56152344 294.13647461 C130.65756828 296.02205655 128.76185365 297.91563581 126.8671875 299.81054688 C125.66193115 301.01089161 124.45621806 302.21077794 123.25 303.41015625 C122.68227875 303.97676468 122.1145575 304.54337311 121.52963257 305.12715149 C116.48944362 310.10638167 116.48944362 310.10638167 111.60546875 310.5 C107.13781917 310.43950373 103.93687217 308.82301702 100.2265625 306.453125 C99.65357422 306.10507812 99.08058594 305.75703125 98.49023438 305.3984375 C93.76136821 302.52601036 93.76136821 302.52601036 91.54345703 301.00976562 C88.47635285 299.02149502 86.5360172 298.2020012 82.85546875 298.21875 C78.68601113 299.36957511 75.07193664 301.00198661 71.2265625 302.953125 C64.61125869 306.22005839 58.12426391 308.77584291 51.046875 310.90234375 C47.50839575 312.57134317 46.85519032 313.61484978 45.2890625 317.203125 C43.74124469 321.82246765 42.39552864 326.50016142 41.0703125 331.1875 C39.4233973 336.67721732 38.11646804 340.70289138 33.2890625 344.203125 C28.97525165 345.41357329 24.61998345 345.38069347 20.171875 345.40625 C19.39649384 345.41195007 18.62111267 345.41765015 17.82223511 345.42352295 C16.18667959 345.43293935 14.5511054 345.43949352 12.91552734 345.44335938 C10.42902186 345.4530666 7.94334317 345.48412154 5.45703125 345.515625 C3.86198403 345.52215608 2.26693096 345.52740614 0.671875 345.53125 C-0.06376678 345.5435968 -0.79940857 345.5559436 -1.55734253 345.56866455 C-6.65809574 345.54692289 -10.2094099 344.66406199 -14.7109375 342.203125 C-17.44628465 339.43023744 -18.37270983 336.63948926 -19.39453125 332.921875 C-19.68263672 331.91511719 -19.97074219 330.90835937 -20.26757812 329.87109375 C-20.85453824 327.76011966 -21.43787675 325.64813521 -22.01757812 323.53515625 C-22.30697266 322.52839844 -22.59636719 321.52164062 -22.89453125 320.484375 C-23.14775146 319.56720703 -23.40097168 318.65003906 -23.66186523 317.70507812 C-24.89393932 314.76668036 -26.27385279 313.23675434 -28.7109375 311.203125 C-31.32450844 310.14002581 -33.84189944 309.23054154 -36.5234375 308.390625 C-43.85844623 305.98205557 -50.59409814 302.98154985 -57.44140625 299.42578125 C-61.36276849 297.9593698 -62.73409753 297.9239963 -66.7109375 299.203125 C-71.25118055 301.38681757 -75.62275632 303.87185776 -80.01171875 306.34179688 C-88.82367074 311.15118126 -88.82367074 311.15118126 -93.7109375 310.203125 C-99.13558512 307.436849 -103.00420213 302.91168074 -106.7109375 298.203125 C-108.36134516 296.52035641 -110.03147326 294.85689507 -111.7109375 293.203125 C-114.130384 290.81008636 -116.54590702 288.41311895 -118.9609375 286.015625 C-119.59773438 285.38720703 -120.23453125 284.75878906 -120.890625 284.11132812 C-121.49648437 283.50869141 -122.10234375 282.90605469 -122.7265625 282.28515625 C-123.27602539 281.74093018 -123.82548828 281.1967041 -124.39160156 280.63598633 C-126.96395879 277.84228452 -127.09870781 275.19639101 -127.04980469 271.46289062 C-126.41844995 267.25264606 -124.10902683 263.97860515 -121.8359375 260.453125 C-120.92110015 258.97964747 -120.00701181 257.50570457 -119.09375 256.03125 C-118.68527832 255.3909082 -118.27680664 254.75056641 -117.85595703 254.09082031 C-115.35609228 250.10528759 -115.35609228 250.10528759 -114.8203125 245.55078125 C-116.28138921 240.05892711 -118.79997761 235.08064242 -121.23535156 229.9621582 C-124.82268486 222.31015608 -124.82268486 222.31015608 -125.6796875 218.25 C-126.56240465 214.45431625 -127.23248129 212.23732908 -129.7109375 209.203125 C-135.46926562 206.04865449 -141.86239388 204.52463806 -148.17431641 202.87402344 C-157.98746407 200.27859228 -157.98746407 200.27859228 -160.40600586 196.68334961 C-162.06344869 192.26298523 -162.1428014 188.5038871 -162.109375 183.82421875 C-162.11224518 182.93452896 -162.11511536 182.04483917 -162.11807251 181.12818909 C-162.12010664 179.2548051 -162.11462247 177.38139955 -162.10205078 175.50805664 C-162.08596862 172.64616337 -162.10193122 169.78567816 -162.12109375 166.92382812 C-162.11911157 165.09895523 -162.11526843 163.27408321 -162.109375 161.44921875 C-162.11544769 160.59702255 -162.12152039 159.74482635 -162.1277771 158.86680603 C-162.07227012 154.16452544 -161.8037891 150.98536823 -158.7109375 147.203125 C-155.84297305 144.57066651 -153.11093401 143.5148923 -149.39453125 142.44921875 C-148.38326172 142.15208984 -147.37199219 141.85496094 -146.33007812 141.54882812 C-144.75516602 141.09926758 -144.75516602 141.09926758 -143.1484375 140.640625 C-141.06248286 140.03971697 -138.97778137 139.43443688 -136.89453125 138.82421875 C-135.97212646 138.5605249 -135.04972168 138.29683105 -134.09936523 138.02514648 C-131.30730697 137.06420811 -129.21191077 136.19876028 -127.83886719 133.4699707 C-127.48937012 132.4348938 -127.48937012 132.4348938 -127.1328125 131.37890625 C-126.86210938 130.60442139 -126.59140625 129.82993652 -126.3125 129.03198242 C-126.03148437 128.20158447 -125.75046875 127.37118652 -125.4609375 126.515625 C-122.77577355 118.82569487 -119.65235585 111.6270185 -115.8984375 104.40234375 C-114.48867892 100.60434283 -114.51025156 99.05309773 -115.7109375 95.203125 C-117.04156895 92.38154075 -118.56601333 89.70252676 -120.1484375 87.015625 C-120.55642578 86.30470703 -120.96441406 85.59378906 -121.38476562 84.86132812 C-123.08625443 81.91078554 -124.82045448 79.03884953 -126.7109375 76.203125 C-127.70362357 69.6955163 -127.70362357 69.6955163 -125.55761719 66.46923828 C-120.20252104 60.62923185 -114.65195101 54.99181803 -109.03881836 49.40063477 C-107.38080795 47.74805318 -105.72829774 46.09010301 -104.07617188 44.43164062 C-103.02115439 43.37728281 -101.96582736 42.32323462 -100.91015625 41.26953125 C-100.4174675 40.77481827 -99.92477875 40.28010529 -99.41716003 39.770401 C-94.98234634 35.36612613 -94.98234634 35.36612613 -91.12109375 34.87109375 C-86.4597649 35.32494593 -83.18458479 37.24198744 -79.1484375 39.515625 C-78.40658203 39.91974609 -77.66472656 40.32386719 -76.90039062 40.74023438 C-73.86898923 42.40035179 -70.92393424 44.05914046 -68.05859375 45.99609375 C-64.99696878 47.57020709 -63.12082158 47.62340296 -59.7109375 47.203125 C-56.64246487 45.9382244 -56.64246487 45.9382244 -53.5234375 44.140625 C-49.34483555 41.87217525 -45.243141 39.97096561 -40.71484375 38.49609375 C-39.86494873 38.21580322 -39.01505371 37.9355127 -38.1394043 37.64672852 C-36.47141669 37.11199647 -34.79434311 36.60461875 -33.10864258 36.12866211 C-29.7872048 35.04920348 -27.43516727 34.2265565 -25.37597656 31.31665039 C-24.29110964 28.97628349 -23.46879785 26.66846547 -22.7109375 24.203125 C-22.44909668 23.39617188 -22.18725586 22.58921875 -21.91748047 21.7578125 C-20.88745161 18.47741581 -19.93302826 15.17831501 -19 11.86914062 C-17.66487763 7.39360946 -16.65474043 4.04893734 -12.7109375 1.203125 C-8.53261236 -0.09060957 -4.3356882 0.0226474 0 0 Z " fill="#FCFDFC" transform="translate(176.7109375,5.796875)"/>
<path d="M0 0 C16.67185753 -0.02254688 33.34370211 -0.04097909 50.01557064 -0.05181217 C57.75607282 -0.05697517 65.49656487 -0.06401793 73.23706055 -0.07543945 C79.98127151 -0.08538619 86.72547515 -0.0918534 93.46969324 -0.09408849 C97.04286866 -0.09539562 100.6160231 -0.09848158 104.18919182 -0.10573006 C108.17162351 -0.11374372 112.15403441 -0.11399114 116.13647461 -0.11352539 C117.32977386 -0.11712067 118.52307312 -0.12071594 119.75253296 -0.12442017 C121.37011253 -0.12235817 121.37011253 -0.12235817 123.02037048 -0.12025452 C123.96336471 -0.12117631 124.90635893 -0.1220981 125.87792873 -0.12304783 C128 0 128 0 129 1 C129.09946453 2.76859193 129.13080217 4.54111451 129.1328125 6.3125 C129.13410156 7.38757813 129.13539063 8.46265625 129.13671875 9.5703125 C129.13285156 10.70210937 129.12898437 11.83390625 129.125 13 C129.12886719 14.13179687 129.13273438 15.26359375 129.13671875 16.4296875 C129.13478516 18.04230469 129.13478516 18.04230469 129.1328125 19.6875 C129.13168457 20.68136719 129.13055664 21.67523438 129.12939453 22.69921875 C129 25 129 25 128 26 C126.3424238 26.09611419 124.68073014 26.12187755 123.02037048 26.12025452 C121.40279091 26.12231651 121.40279091 26.12231651 119.75253296 26.12442017 C118.5592337 26.12082489 117.36593445 26.11722961 116.13647461 26.11352539 C114.88787155 26.11367142 113.63926849 26.11381744 112.35282898 26.1139679 C108.91909006 26.11338891 105.48541062 26.10835955 102.05168223 26.10139394 C98.46687541 26.09515998 94.88206787 26.09455657 91.29725647 26.09336853 C84.50449955 26.09025534 77.71175865 26.08204212 70.91900879 26.07201904 C63.18757506 26.06085753 55.45614058 26.05534736 47.72470081 26.05032361 C31.81645634 26.03985949 15.90823394 26.02151416 0 26 C0 17.42 0 8.84 0 0 Z " fill="#FEFEFE" transform="translate(124,124)"/>
<path d="M0 0 C16.67185753 -0.02254688 33.34370211 -0.04097909 50.01557064 -0.05181217 C57.75607282 -0.05697517 65.49656487 -0.06401793 73.23706055 -0.07543945 C79.98127151 -0.08538619 86.72547515 -0.0918534 93.46969324 -0.09408849 C97.04286866 -0.09539562 100.6160231 -0.09848158 104.18919182 -0.10573006 C108.17162351 -0.11374372 112.15403441 -0.11399114 116.13647461 -0.11352539 C117.32977386 -0.11712067 118.52307312 -0.12071594 119.75253296 -0.12442017 C121.37011253 -0.12235817 121.37011253 -0.12235817 123.02037048 -0.12025452 C123.96336471 -0.12117631 124.90635893 -0.1220981 125.87792873 -0.12304783 C128 0 128 0 129 1 C129.08726223 2.78071246 129.10699041 4.5648314 129.09765625 6.34765625 C129.09443359 7.42724609 129.09121094 8.50683594 129.08789062 9.61914062 C129.07951172 10.75544922 129.07113281 11.89175781 129.0625 13.0625 C129.05798828 14.20267578 129.05347656 15.34285156 129.04882812 16.51757812 C129.03699747 19.34510351 129.0205141 22.1725264 129 25 C126.47916636 26.26041682 124.76017086 26.12303764 121.93807983 26.12025452 C120.33105949 26.12231651 120.33105949 26.12231651 118.6915741 26.12442017 C117.51122086 26.12082489 116.33086761 26.11722961 115.11474609 26.11352539 C113.87575058 26.11367142 112.63675507 26.11381744 111.36021423 26.1139679 C107.95752498 26.11338953 104.55489597 26.10836527 101.15221739 26.10139394 C97.59811295 26.09515368 94.04400775 26.09455607 90.48989868 26.09336853 C83.75738213 26.0902572 77.02488176 26.08204648 70.29237235 26.07201904 C62.6286288 26.06085176 54.96488448 26.0553459 47.30113482 26.05032361 C31.53407891 26.03986371 15.76704529 26.02152068 0 26 C0 17.42 0 8.84 0 0 Z " fill="#F1F1F1" transform="translate(124,208)"/>
<path d="M0 0 C34.98 0 69.96 0 106 0 C106 7.92 106 15.84 106 24 C71.02 24 36.04 24 0 24 C0 16.08 0 8.16 0 0 Z " fill="#F8F8F8" transform="translate(124,167)"/>
<path d="M0 0 C41.91 0 83.82 0 127 0 C127 0.33 127 0.66 127 1 C85.42 1 43.84 1 1 1 C1 8.59 1 16.18 1 24 C42.58 24 84.16 24 127 24 C127 16.74 127 9.48 127 2 C127.66 1.67 128.32 1.34 129 1 C129.02886984 4.97915159 129.04675406 8.95827653 129.0625 12.9375 C129.07087891 14.07380859 129.07925781 15.21011719 129.08789062 16.38085938 C129.09111328 17.46044922 129.09433594 18.54003906 129.09765625 19.65234375 C129.10289307 20.65257568 129.10812988 21.65280762 129.11352539 22.68334961 C129 25 129 25 128 26 C126.3424238 26.09611419 124.68073014 26.12187755 123.02037048 26.12025452 C121.40279091 26.12231651 121.40279091 26.12231651 119.75253296 26.12442017 C118.5592337 26.12082489 117.36593445 26.11722961 116.13647461 26.11352539 C114.88787155 26.11367142 113.63926849 26.11381744 112.35282898 26.1139679 C108.91909006 26.11338891 105.48541062 26.10835955 102.05168223 26.10139394 C98.46687541 26.09515998 94.88206787 26.09455657 91.29725647 26.09336853 C84.50449955 26.09025534 77.71175865 26.08204212 70.91900879 26.07201904 C63.18757506 26.06085753 55.45614058 26.05534736 47.72470081 26.05032361 C31.81645634 26.03985949 15.90823394 26.02151416 0 26 C0 17.42 0 8.84 0 0 Z " fill="#A3A3A3" transform="translate(124,124)"/>
<path d="M0 0 C0.33 0 0.66 0 1 0 C1.51518666 5.40945993 0.19751202 7.69904704 -3 12 C-4.99161042 14.23993904 -7.09404401 16.35169741 -9.2265625 18.45703125 C-10.10989761 19.33967903 -10.10989761 19.33967903 -11.01107788 20.24015808 C-12.24752694 21.47360361 -13.48638783 22.70463574 -14.72753906 23.93334961 C-16.63149422 25.81893155 -18.52720885 27.71251081 -20.421875 29.60742188 C-21.62713135 30.80776661 -22.83284444 32.00765294 -24.0390625 33.20703125 C-24.60678375 33.77363968 -25.174505 34.34024811 -25.75942993 34.92402649 C-30.79961888 39.90325667 -30.79961888 39.90325667 -35.68359375 40.296875 C-40.15124333 40.23637873 -43.35219033 38.61989202 -47.0625 36.25 C-47.92198242 35.72792969 -47.92198242 35.72792969 -48.79882812 35.1953125 C-49.95425591 34.49347785 -51.1061542 33.78579867 -52.25439453 33.07226562 C-56.39746503 30.52731938 -60.61470483 28.10494168 -65 26 C-63.54119891 26.14107747 -62.08296449 26.28802415 -60.625 26.4375 C-59.40683594 26.55931641 -59.40683594 26.55931641 -58.1640625 26.68359375 C-56 27 -56 27 -54 28 C-54 28.66 -54 29.32 -54 30 C-53.360625 30.226875 -52.72125 30.45375 -52.0625 30.6875 C-49.38561939 31.83473455 -47.10903038 33.12608936 -44.625 34.625 C-40.493829 36.90567953 -37.77701178 38.04225712 -33 37 C-25.44889629 31.59182095 -19.15519098 24.20941459 -12.68359375 17.58764648 C-11.29600999 16.17005197 -9.90201582 14.75874095 -8.5078125 13.34765625 C-7.68941895 12.51242432 -6.87102539 11.67719238 -6.02783203 10.81665039 C-4 9 -4 9 -2 9 C-1.855625 7.700625 -1.71125 6.40125 -1.5625 5.0625 C-1.125 1.125 -1.125 1.125 0 0 Z " fill="#CFD9C8" transform="translate(324,276)"/>
<path d="M0 0 C0.92619141 0.28230469 0.92619141 0.28230469 1.87109375 0.5703125 C1.37738281 0.98023438 0.88367187 1.39015625 0.375 1.8125 C-0.26566406 2.35132813 -0.90632813 2.89015625 -1.56640625 3.4453125 C-2.20449219 3.97898438 -2.84257812 4.51265625 -3.5 5.0625 C-5.23695629 6.4925882 -5.23695629 6.4925882 -6.12890625 8.5703125 C-6.22826444 11.58592735 -6.26870385 14.57795923 -6.26171875 17.59375 C-6.26315384 18.94033188 -6.26315384 18.94033188 -6.26461792 20.31411743 C-6.26529918 22.21559723 -6.26344865 24.11707934 -6.25927734 26.01855469 C-6.2539408 28.92648571 -6.25921771 31.83426139 -6.265625 34.7421875 C-6.26496396 36.58854201 -6.26368227 38.43489642 -6.26171875 40.28125 C-6.26374298 41.1511557 -6.26576721 42.0210614 -6.26785278 42.91732788 C-6.26312454 44.13846786 -6.26312454 44.13846786 -6.25830078 45.38427734 C-6.25750519 46.09772308 -6.25670959 46.81116882 -6.25588989 47.54623413 C-6.12331994 49.65935642 -5.70436334 51.53670234 -5.12890625 53.5703125 C-3.55109375 53.7559375 -3.55109375 53.7559375 -1.94140625 53.9453125 C1.33068146 54.48172032 3.87645451 55.20911285 6.87109375 56.5703125 C6.87109375 57.2303125 6.87109375 57.8903125 6.87109375 58.5703125 C5.11702722 58.17111115 3.36790393 57.75015584 1.62109375 57.3203125 C0.6465625 57.08828125 -0.32796875 56.85625 -1.33203125 56.6171875 C-4.495974 55.43291843 -6.00036807 54.16751964 -8.12890625 51.5703125 C-9.02369909 48.88593398 -9.26340573 47.30164584 -9.29003906 44.54541016 C-9.29964661 43.74092438 -9.30925415 42.9364386 -9.31915283 42.10757446 C-9.32340271 41.24191864 -9.32765259 40.37626282 -9.33203125 39.484375 C-9.33773132 38.59044037 -9.3434314 37.69650574 -9.3493042 36.77548218 C-9.35874881 34.88418764 -9.36528604 32.99287669 -9.36914062 31.1015625 C-9.37884598 28.21324875 -9.40987411 25.32564676 -9.44140625 22.4375 C-9.44793661 20.59896255 -9.45318695 18.76042002 -9.45703125 16.921875 C-9.46937805 16.06026764 -9.48172485 15.19866028 -9.4944458 14.3109436 C-9.47681887 9.54877373 -9.18845377 6.45588185 -6.12890625 2.5703125 C-2.87359248 -0.57999114 -2.87359248 -0.57999114 0 0 Z " fill="#B6B9B2" transform="translate(24.12890625,150.4296875)"/>
<path d="M0 0 C0.66 0 1.32 0 2 0 C2.061875 1.27875 2.12375 2.5575 2.1875 3.875 C2.69433944 8.81863389 4.53130038 12.40098296 7.0390625 16.640625 C8.22992206 19.56452407 7.98515262 21.0345911 7 24 C4.50617145 26.49382855 2.99632174 26.2558932 -0.40899658 26.30354309 C-1.14543396 26.30263168 -1.88187134 26.30172028 -2.640625 26.30078125 C-3.78032745 26.30720894 -3.78032745 26.30720894 -4.9430542 26.31376648 C-6.55366011 26.31951525 -8.164292 26.32000601 -9.77490234 26.31567383 C-12.22669572 26.31252988 -14.67726359 26.33590844 -17.12890625 26.36132812 C-18.69531098 26.36360284 -20.26171895 26.36430382 -21.828125 26.36328125 C-22.55646545 26.372491 -23.28480591 26.38170074 -24.03521729 26.39118958 C-28.75166095 26.34884742 -32.00161615 25.5106576 -36 23 C-36.33 22.34 -36.66 21.68 -37 21 C-35.85660156 21.32742187 -34.71320313 21.65484375 -33.53515625 21.9921875 C-26.26969631 23.60673415 -18.8355323 23.2115649 -11.4375 23.125 C-9.93685494 23.11494923 -8.43620335 23.10582709 -6.93554688 23.09765625 C-3.29022719 23.07581091 0.35484376 23.0413969 4 23 C5.39208111 18.6278385 4.13697883 16.63148908 2.0625 12.5625 C-1.53071641 5.49884222 -1.53071641 5.49884222 -1 1 C-0.67 0.67 -0.34 0.34 0 0 Z " fill="#BFC1BD" transform="translate(311,101)"/>
<path d="M0 0 C5.44430582 -0.07437576 10.88831329 -0.12870866 16.33300781 -0.16479492 C18.18364619 -0.17984471 20.03424911 -0.20028933 21.88476562 -0.22631836 C24.55087045 -0.2628698 27.21650208 -0.27976454 29.8828125 -0.29296875 C30.70492218 -0.30845261 31.52703186 -0.32393646 32.37405396 -0.33988953 C37.32053492 -0.34132584 40.73932143 0.20567995 45 3 C49.74689558 10.12034337 51.12002207 18.76009672 53 27 C52.34 27 51.68 27 51 27 C50.51080078 25.49759766 50.51080078 25.49759766 50.01171875 23.96484375 C49.57047685 22.6223418 49.12906129 21.27989693 48.6875 19.9375 C48.36749023 18.95233398 48.36749023 18.95233398 48.04101562 17.94726562 C45.6058386 9.3720741 45.6058386 9.3720741 40 3 C38.08551948 2.67539843 38.08551948 2.67539843 35.98754883 2.68115234 C35.18694534 2.66128265 34.38634186 2.64141296 33.56147766 2.62094116 C32.70201035 2.60938995 31.84254303 2.59783875 30.95703125 2.5859375 C30.0734343 2.56657135 29.18983734 2.5472052 28.27946472 2.5272522 C25.45724134 2.46747195 22.63497714 2.42107734 19.8125 2.375 C17.89907075 2.33681878 15.98565867 2.29776696 14.07226562 2.2578125 C9.38164979 2.16177168 4.69095348 2.0777349 0 2 C0 1.34 0 0.68 0 0 Z " fill="#BCBFBA" transform="translate(168,6)"/>
<path d="M0 0 C1.98 0.99 1.98 0.99 4 2 C4 2.66 4 3.32 4 4 C9.87155408 4.07433795 15.74283219 4.12869117 21.61474609 4.16479492 C23.61088841 4.17985098 25.60699781 4.20030027 27.60302734 4.22631836 C30.47762185 4.26284161 33.35177772 4.27975837 36.2265625 4.29296875 C37.11429352 4.30845261 38.00202454 4.32393646 38.91665649 4.33988953 C44.10652678 4.34128882 47.42112031 3.69850659 52 1 C52.66 1 53.32 1 54 1 C53.4375 2.875 53.4375 2.875 52 5 C46.87413141 6.85983925 42.1343109 7.30758751 36.6875 7.30078125 C35.91494873 7.30506638 35.14239746 7.3093515 34.34643555 7.31376648 C32.72282893 7.31947633 31.09919674 7.3200349 29.47558594 7.31567383 C27.00671431 7.31250861 24.5390369 7.3360318 22.0703125 7.36132812 C20.4843765 7.36360113 18.8984373 7.36430461 17.3125 7.36328125 C16.58313232 7.372491 15.85376465 7.38170074 15.10229492 7.39118958 C10.04338996 7.34602078 6.49537223 6.36314454 2 4 C0.5625 1.8125 0.5625 1.8125 0 0 Z " fill="#4E4E4E" transform="translate(160,344)"/>
<path d="M0 0 C6.9415148 4.85795262 12.87464549 11.68844282 18.85742188 17.67211914 C20.51936188 19.33183598 22.1891961 20.98334457 23.859375 22.63476562 C24.91715357 23.68961614 25.97446325 24.7449371 27.03125 25.80078125 C27.53112427 26.29347 28.03099854 26.78615875 28.54602051 27.29377747 C32 30.77112877 32 30.77112877 32 33 C31.34 33 30.68 33 30 33 C28.65356445 31.63452148 28.65356445 31.63452148 27.05078125 29.68359375 C22.37950917 24.191611 17.29361205 19.14746872 12.1875 14.0625 C11.22444087 13.09587098 10.26154919 12.1290751 9.29882812 11.16210938 C8.38939453 10.25396484 7.47996094 9.34582031 6.54296875 8.41015625 C5.71821045 7.58652588 4.89345215 6.76289551 4.04370117 5.91430664 C1.43314178 3.46903174 0.47191638 3.04719164 -3.125 2.6875 C-7.30101948 3.02427576 -9.64133939 4.07341149 -13.203125 6.125 C-15 7 -15 7 -18 7 C-18 7.66 -18 8.32 -18 9 C-18.99 9.33 -19.98 9.66 -21 10 C-19.1196048 5.02884028 -15.42015967 3.53768896 -10.87890625 1.22265625 C-6.58900739 -0.5992411 -4.61468995 -0.98345851 0 0 Z " fill="#C3CDBD" transform="translate(292,41)"/>
<path d="M0 0 C-8.76230019 4.590886 -17.4001415 8.84945664 -26.85742188 11.83251953 C-30.08296082 12.92554563 -31.78478269 13.70643806 -33.82421875 16.48828125 C-34.21222656 17.31714844 -34.60023438 18.14601563 -35 19 C-35.66 19.99 -36.32 20.98 -37 22 C-38 19 -38 19 -36.875 16 C-34.79588006 12.6734081 -33.57190626 11.54241407 -30 10 C-26.1875 9.3125 -26.1875 9.3125 -23 9 C-23 8.34 -23 7.68 -23 7 C-22.09121094 6.76216797 -22.09121094 6.76216797 -21.1640625 6.51953125 C-15.39283794 4.91246718 -10.36088873 2.81314491 -5.12890625 -0.109375 C-3 -1 -3 -1 0 0 Z " fill="#BDC4B9" transform="translate(257,304)"/>
<path d="M0 0 C0.99 0 1.98 0 3 0 C1.18269231 5.71153846 1.18269231 5.71153846 -0.1875 7.875 C-1.68884519 11.80159511 -0.77790108 16.1714893 0.83569336 19.96435547 C1.8524762 21.8527015 2.93081303 23.67835535 4.0625 25.5 C4.43955078 26.13164062 4.81660156 26.76328125 5.20507812 27.4140625 C6.12440163 28.95014734 7.06046282 30.47619482 8 32 C6.515 32.495 6.515 32.495 5 33 C4.67 31.35 4.34 29.7 4 28 C3.34 28 2.68 28 2 28 C1.01 25.03 0.02 22.06 -1 19 C-1.66 19 -2.32 19 -3 19 C-5.1924526 12.4226422 -3.76319597 7.72970272 -0.875 1.72265625 C-0.58625 1.15417969 -0.2975 0.58570313 0 0 Z " fill="#CBD5C6" transform="translate(314,239)"/>
<path d="M0 0 C-3.6976152 2.02030029 -7.40965771 4.01251569 -11.125 6 C-12.17171875 6.57234375 -13.2184375 7.1446875 -14.296875 7.734375 C-15.31523438 8.27578125 -16.33359375 8.8171875 -17.3828125 9.375 C-18.31496582 9.87773437 -19.24711914 10.38046875 -20.20751953 10.8984375 C-23.37008873 12.14599059 -25.62836608 12.29687343 -29 12 C-31.3359375 10.6875 -31.3359375 10.6875 -33.375 9 C-34.06335938 8.443125 -34.75171875 7.88625 -35.4609375 7.3125 C-36.22277344 6.6628125 -36.22277344 6.6628125 -37 6 C-36.01 5.67 -35.02 5.34 -34 5 C-32.6078125 5.99 -32.6078125 5.99 -31.1875 7 C-28.2203062 9.28215577 -28.2203062 9.28215577 -25.125 8.875 C-24.09375 8.58625 -23.0625 8.2975 -22 8 C-20.54223959 7.64348251 -19.08388691 7.28937941 -17.625 6.9375 C-16.42875 6.628125 -15.2325 6.31875 -14 6 C-14 5.34 -14 4.68 -14 4 C-12.23494565 3.13395466 -10.46271926 2.28251358 -8.6875 1.4375 C-7.70136719 0.96183594 -6.71523437 0.48617188 -5.69921875 -0.00390625 C-3 -1 -3 -1 0 0 Z " fill="#C9D0C4" transform="translate(112,304)"/>
<path d="M0 0 C10.56 0.66 21.12 1.32 32 2 C31.67 2.66 31.34 3.32 31 4 C27.70841135 4.05905417 24.41696244 4.09394375 21.125 4.125 C20.2071875 4.14175781 19.289375 4.15851563 18.34375 4.17578125 C11.99187394 4.22051277 6.17389964 3.48851563 0 2 C0 1.34 0 0.68 0 0 Z " fill="#C9D0C5" transform="translate(165,280)"/>
<path d="M0 0 C1.10472656 -0.00128906 2.20945313 -0.00257812 3.34765625 -0.00390625 C5.07822266 0.00189453 5.07822266 0.00189453 6.84375 0.0078125 C7.99746094 0.00394531 9.15117187 0.00007813 10.33984375 -0.00390625 C11.99693359 -0.00197266 11.99693359 -0.00197266 13.6875 0 C15.20633789 0.00169189 15.20633789 0.00169189 16.75585938 0.00341797 C19.34375 0.1328125 19.34375 0.1328125 22.34375 1.1328125 C22.34375 1.7928125 22.34375 2.4528125 22.34375 3.1328125 C12.11375 3.1328125 1.88375 3.1328125 -8.65625 3.1328125 C-8.65625 2.4728125 -8.65625 1.8128125 -8.65625 1.1328125 C-5.51733918 0.08650889 -3.29331954 0.00366856 0 0 Z " fill="#C5CFC0" transform="translate(180.65625,72.8671875)"/>
<path d="M0 0 C0.53625 0.268125 1.0725 0.53625 1.625 0.8125 C1.13128906 1.22242188 0.63757812 1.63234375 0.12890625 2.0546875 C-0.51175781 2.59351563 -1.15242188 3.13234375 -1.8125 3.6875 C-2.45058594 4.22117188 -3.08867187 4.75484375 -3.74609375 5.3046875 C-5.91646901 7.31371592 -6.33954454 8.3770007 -6.58032227 11.33447266 C-6.61697998 12.3713623 -6.6536377 13.40825195 -6.69140625 14.4765625 C-6.73330078 15.59804687 -6.77519531 16.71953125 -6.81835938 17.875 C-6.85767578 19.050625 -6.89699219 20.22625 -6.9375 21.4375 C-6.98068359 22.62085938 -7.02386719 23.80421875 -7.06835938 25.0234375 C-7.17467426 27.95300328 -7.27670642 30.88265588 -7.375 33.8125 C-7.705 33.8125 -8.035 33.8125 -8.375 33.8125 C-8.52386815 29.77435605 -8.63245089 25.73728395 -8.70458984 21.69702148 C-8.7346733 20.3243425 -8.77555334 18.95185437 -8.82763672 17.57983398 C-9.2452572 6.29179811 -9.2452572 6.29179811 -7.15332031 2.73583984 C-4.86737488 0.65633442 -3.10270792 -0.24495063 0 0 Z " fill="#D6DBD3" transform="translate(24.375,150.1875)"/>
<path d="M0 0 C1.45880109 0.14107747 2.91703551 0.28802415 4.375 0.4375 C5.59316406 0.55931641 5.59316406 0.55931641 6.8359375 0.68359375 C9 1 9 1 11 2 C11 2.66 11 3.32 11 4 C11.639375 4.226875 12.27875 4.45375 12.9375 4.6875 C17.13320261 6.48565826 21.03900556 8.73904021 25 11 C25 11.66 25 12.32 25 13 C20.35019139 11.32570492 16.20810507 8.95041134 11.9375 6.5 C10.5304351 5.69706233 9.12289746 4.8949524 7.71484375 4.09375 C7.09730225 3.73990234 6.47976074 3.38605469 5.84350586 3.02148438 C3.92171634 1.95662312 1.97148564 0.96927066 0 0 Z " fill="#B9C0B4" transform="translate(259,302)"/>
<path d="M0 0 C7.91909556 2.45765035 15.41985296 5.66818573 23 9 C23 9.66 23 10.32 23 11 C18.16371695 10.00956295 13.52381127 9.04301154 9 7 C9 6.34 9 5.68 9 5 C7.68 5 6.36 5 5 5 C5 4.34 5 3.68 5 3 C2.525 2.01 2.525 2.01 0 1 C0 0.67 0 0.34 0 0 Z " fill="#C7CFBA" transform="translate(133,268)"/>
<path d="M0 0 C0.66 0 1.32 0 2 0 C2.061875 1.27875 2.12375 2.5575 2.1875 3.875 C2.70198511 8.80937996 4.51028695 12.46143964 6.94140625 16.73828125 C8 19 8 19 8 23 C7.34 23 6.68 23 6 23 C5.74605469 22.35933594 5.49210937 21.71867187 5.23046875 21.05859375 C4.71419922 19.76115234 4.71419922 19.76115234 4.1875 18.4375 C3.82527344 17.52484375 3.46304687 16.6121875 3.08984375 15.671875 C2.19535191 13.47892727 1.24351397 11.33615223 0.25 9.1875 C-0.94477942 6.14081249 -1.37929126 4.22397572 -1 1 C-0.67 0.67 -0.34 0.34 0 0 Z " fill="#C6CDC1" transform="translate(311,101)"/>
<path d="M0 0 C0 0.99 0 1.98 0 3 C-0.99 2.9175 -1.98 2.835 -3 2.75 C-7.03486558 2.71719621 -9.75855285 4.14092644 -13.203125 6.125 C-15 7 -15 7 -18 7 C-18 7.66 -18 8.32 -18 9 C-18.99 9.33 -19.98 9.66 -21 10 C-19.12127603 5.03325847 -15.41776015 3.55898358 -10.91015625 1.1953125 C-6.95089012 -0.43090956 -4.21654956 -0.47734523 0 0 Z " fill="#C9D1C4" transform="translate(292,41)"/>
<path d="M0 0 C0.66 0 1.32 0 2 0 C1.59683075 6.31631828 -0.71232131 10.64993984 -4 16 C-4.66 15.67 -5.32 15.34 -6 15 C-5.65066406 14.25234375 -5.30132812 13.5046875 -4.94140625 12.734375 C-4.48636719 11.74953125 -4.03132813 10.7646875 -3.5625 9.75 C-3.11003906 8.77546875 -2.65757812 7.8009375 -2.19140625 6.796875 C-1.21617644 4.50748305 -0.5025726 2.42621254 0 0 Z " fill="#C7CEC0" transform="translate(323,75)"/>
<path d="M0 0 C4.42973678 0.59107432 8.19492148 1.70945023 12.3125 3.4375 C13.88451172 4.08525391 13.88451172 4.08525391 15.48828125 4.74609375 C18 6 18 6 19 8 C14.71620357 7.28739906 10.74906147 5.93078264 6.6875 4.4375 C6.04232422 4.20353516 5.39714844 3.96957031 4.73242188 3.72851562 C3.15378781 3.15552993 1.57672974 2.57820536 0 2 C0 1.34 0 0.68 0 0 Z " fill="#D7DDD3" transform="translate(218,78)"/>
<path d="M0 0 C0.33 0.66 0.66 1.32 1 2 C0.34 2 -0.32 2 -1 2 C-1 2.66 -1 3.32 -1 4 C-2.41225926 4.67595315 -3.83002905 5.34040059 -5.25 6 C-6.43335938 6.556875 -6.43335938 6.556875 -7.640625 7.125 C-10 8 -10 8 -14 8 C-14 7.34 -14 6.68 -14 6 C-9.38 4.02 -4.76 2.04 0 0 Z " fill="#BECCB8" transform="translate(235,270)"/>
<path d="M0 0 C3 1 3 1 4.82421875 4.16015625 C5.45553148 5.45600869 6.07625399 6.75706229 6.6875 8.0625 C7.00783203 8.72572266 7.32816406 9.38894531 7.65820312 10.07226562 C8.4478598 11.71050858 9.22512362 13.35471454 10 15 C9.01 15 8.02 15 7 15 C6.67 13.35 6.34 11.7 6 10 C5.34 10 4.68 10 4 10 C2.68 6.7 1.36 3.4 0 0 Z " fill="#C8D1C3" transform="translate(312,257)"/>
<path d="M0 0 C-9.405 4.95 -9.405 4.95 -19 10 C-19.33 9.34 -19.66 8.68 -20 8 C-18.02 7.34 -16.04 6.68 -14 6 C-14 5.34 -14 4.68 -14 4 C-12.23494565 3.13395466 -10.46271926 2.28251358 -8.6875 1.4375 C-7.70136719 0.96183594 -6.71523437 0.48617188 -5.69921875 -0.00390625 C-3 -1 -3 -1 0 0 Z " fill="#C1C9BC" transform="translate(112,304)"/>
<path d="M0 0 C-0.33 0.99 -0.66 1.98 -1 3 C-5.81087497 4.54926482 -9.91996441 5.25400178 -15 5 C-15 4.34 -15 3.68 -15 3 C-12.87562952 2.49733206 -10.75048274 1.9979439 -8.625 1.5 C-7.44164062 1.2215625 -6.25828125 0.943125 -5.0390625 0.65625 C-2 0 -2 0 0 0 Z " fill="#C6CDC1" transform="translate(220,277)"/>
<path d="M0 0 C0 0.66 0 1.32 0 2 C-1.3921875 2.5259375 -1.3921875 2.5259375 -2.8125 3.0625 C-6.9857645 5.59919019 -7.46185496 7.4710174 -9 12 C-9.66 11.67 -10.32 11.34 -11 11 C-9.09349221 3.22731439 -9.09349221 3.22731439 -6 1 C-3 0 -3 0 0 0 Z " fill="#BBC3B6" transform="translate(230,314)"/>
<path d="M0 0 C2.97 0.495 2.97 0.495 6 1 C6 1.66 6 2.32 6 3 C6.66 3 7.32 3 8 3 C9.60355101 6.50776784 10.22036864 9.14354879 10 13 C8 10 8 10 6.6875 6.9375 C5.25202529 3.82089704 5.25202529 3.82089704 2.3125 2.625 C1.549375 2.41875 0.78625 2.2125 0 2 C0 1.34 0 0.68 0 0 Z " fill="#C9D1C4" transform="translate(145,314)"/>
<path d="M0 0 C0.99 0.33 1.98 0.66 3 1 C0.36 4.3 -2.28 7.6 -5 11 C-5.33 10.34 -5.66 9.68 -6 9 C-4.4775751 5.42230149 -2.97069541 2.54631035 0 0 Z " fill="#D6DED0" transform="translate(164,7)"/>
<path d="M0 0 C1.31225809 3.93677426 0.3393954 5.7794262 -0.9375 9.6875 C-1.50791016 11.45673828 -1.50791016 11.45673828 -2.08984375 13.26171875 C-2.39019531 14.16535156 -2.69054687 15.06898438 -3 16 C-3.33 16 -3.66 16 -4 16 C-3.40546697 4.29384966 -3.40546697 4.29384966 0 0 Z " fill="#BEC4B9" transform="translate(219,326)"/>
<path d="M0 0 C-2.34591852 2.7710688 -4.14776201 3.52059284 -7.6875 4.1875 C-8.49574219 4.34605469 -9.30398437 4.50460937 -10.13671875 4.66796875 C-11.05904297 4.83232422 -11.05904297 4.83232422 -12 5 C-12 4.34 -12 3.68 -12 3 C-10.68 3 -9.36 3 -8 3 C-8 2.34 -8 1.68 -8 1 C-5.07175348 0.02391783 -3.04386724 -0.08226668 0 0 Z " fill="#CCD4C5" transform="translate(242,310)"/>
<path d="M0 0 C5.05255964 0.63156995 9.29593201 2.13459373 14 4 C14 4.66 14 5.32 14 6 C9.27934033 4.45730076 4.58335908 2.92205381 0 1 C0 0.67 0 0.34 0 0 Z " fill="#C8D1C3" transform="translate(124,307)"/>
<path d="M0 0 C1.45880109 0.14107747 2.91703551 0.28802415 4.375 0.4375 C5.59316406 0.55931641 5.59316406 0.55931641 6.8359375 0.68359375 C9 1 9 1 11 2 C11 2.66 11 3.32 11 4 C12.32 4.66 13.64 5.32 15 6 C11.33827525 5.37321829 8.1181005 4.35548154 4.6875 2.9375 C3.36298828 2.39416016 3.36298828 2.39416016 2.01171875 1.83984375 C1.34785156 1.56269531 0.68398438 1.28554688 0 1 C0 0.67 0 0.34 0 0 Z " fill="#D1DACA" transform="translate(259,302)"/>
<path d="M0 0 C0.33 0 0.66 0 1 0 C1.33 3.96 1.66 7.92 2 12 C1.01 12.495 1.01 12.495 0 13 C-1.49084832 8.52745503 -1.49084832 4.47254497 0 0 Z " fill="#DBE4D5" transform="translate(311,245)"/>
<path d="M0 0 C0.33 0.99 0.66 1.98 1 3 C-1.31 4.98 -3.62 6.96 -6 9 C-6 6 -6 6 -4.6875 4.39453125 C-4.130625 3.87246094 -3.57375 3.35039062 -3 2.8125 C-2.443125 2.28269531 -1.88625 1.75289063 -1.3125 1.20703125 C-0.6628125 0.60955078 -0.6628125 0.60955078 0 0 Z " fill="#D4DFCE" transform="translate(303,302)"/>
<path d="M0 0 C1.48206495 0.254496 2.96068615 0.52911762 4.4375 0.8125 C5.67306641 1.03873047 5.67306641 1.03873047 6.93359375 1.26953125 C7.95646484 1.63111328 7.95646484 1.63111328 9 2 C9.33 2.99 9.66 3.98 10 5 C8.51793505 4.745504 7.03931385 4.47088238 5.5625 4.1875 C4.73878906 4.03667969 3.91507813 3.88585937 3.06640625 3.73046875 C2.38449219 3.48941406 1.70257812 3.24835938 1 3 C0.67 2.01 0.34 1.02 0 0 Z " fill="#D0D7CB" transform="translate(21,204)"/>
<path d="M0 0 C0.33 0 0.66 0 1 0 C1.32613618 4.67461851 0.70582788 7.16674383 -2 11 C-3 9 -3 9 -2.44140625 6.8359375 C-2.15136719 6.02382813 -1.86132812 5.21171875 -1.5625 4.375 C-1.27503906 3.55773437 -0.98757813 2.74046875 -0.69140625 1.8984375 C-0.46324219 1.27195312 -0.23507812 0.64546875 0 0 Z " fill="#B4BAB1" transform="translate(324,276)"/>
<path d="M0 0 C1.98 0.99 1.98 0.99 4 2 C4 2.66 4 3.32 4 4 C5.65 4 7.3 4 9 4 C8.67 4.66 8.34 5.32 8 6 C5.21788056 5.62403791 3.4120716 5.32681541 1.1875 3.5625 C0 2 0 2 0 0 Z " fill="#CAD0C5" transform="translate(160,344)"/>
<path d="M0 0 C-0.6875 1.9375 -0.6875 1.9375 -2 4 C-4.625 4.75 -4.625 4.75 -7 5 C-7.33 4.34 -7.66 3.68 -8 3 C-2.25 0 -2.25 0 0 0 Z " fill="#C2C7BE" transform="translate(214,345)"/>
</svg>
